<svg xmlns="http://www.w3.org/2000/svg" width="16" height="16" viewBox="0 0 16 16">
    <g fill="#646F86">
        <path d="M5.457 0C2.465 0 .03 2.434.03 5.425c0 1.203.708 3.03 2.228 5.754 1.037 1.858 2.069 3.428 2.112 3.494l.746 1.13c.076.115.203.183.34.183.136 0 .264-.068.339-.182l.746-1.131c.043-.065 1.068-1.621 2.113-3.494 1.52-2.723 2.227-4.551 2.227-5.754C10.882 2.434 8.448 0 5.457 0zm2.488 10.783c-1.03 1.846-2.04 3.378-2.082 3.442l-.406.617-.407-.617c-.043-.065-1.059-1.61-2.082-3.442C1.558 8.257.844 6.454.844 5.425c0-2.543 2.07-4.612 4.613-4.612 2.543 0 4.612 2.07 4.612 4.612 0 1.03-.715 2.832-2.124 5.358z" transform="translate(3)"/>
        <path d="M5.457 2.383c-1.66 0-3.009 1.35-3.009 3.009 0 1.658 1.35 3.008 3.009 3.008 1.658 0 3.008-1.35 3.008-3.008 0-1.66-1.35-3.009-3.008-3.009zm0 5.204c-1.21 0-2.196-.985-2.196-2.195s.985-2.196 2.196-2.196c1.21 0 2.195.985 2.195 2.196 0 1.21-.985 2.195-2.195 2.195z" transform="translate(3)"/>
    </g>
</svg>
