<svg xmlns="http://www.w3.org/2000/svg" width="20" height="20" viewBox="0 0 20 20">
    <g fill="#006AA6" fill-rule="evenodd">
        <path d="M18.438 5.781H1.563V3.906c0-.43.35-.781.78-.781h.938v1.563h1.563V3.125h10.312v1.563h1.563V3.125h.937c.431 0 .782.35.782.781v1.875zm0 11.875c0 .431-.351.782-.782.782H2.344c-.431 0-.781-.351-.781-.782V7.344h16.875v10.312zm-.782-16.093h-.937V0h-1.563v1.563H4.844V0H3.28v1.563h-.937C1.05 1.563 0 2.612 0 3.905v13.75C0 18.95 1.051 20 2.344 20h15.312C18.95 20 20 18.949 20 17.656V3.906c0-1.292-1.051-2.344-2.344-2.344z"/>
        <path d="M4.314 13.006c-.09-.09-.134-.224-.134-.313 0-.09.044-.224.134-.314l.627-.626c.179-.18.448-.18.627 0l.044.044 2.463 2.642c.09.09.224.09.313 0l6-6.223h.044c.18-.18.448-.18.627 0l.627.627c.18.179.18.447 0 .626l-7.163 7.432c-.09.09-.18.135-.314.135s-.224-.045-.313-.135l-3.492-3.76-.09-.135z"/>
    </g>
</svg>
