<svg xmlns="http://www.w3.org/2000/svg" width="60" height="60" viewBox="0 0 60 60">
    <g fill="none" fill-rule="evenodd" transform="translate(.5)">
        <circle cx="29.538" cy="29.538" r="29.538" fill="#40C1AC"/>
        <g>
            <path d="M0 0L30 0 30 30 0 30z" transform="translate(15 15)"/>
            <g fill="#FFF" fill-rule="nonzero">
                <path d="M21.646 0H3.354C1.506 0 .004 1.53.004 3.41v20.335c0 1.88 1.502 3.41 3.35 3.41h18.292c1.848 0 3.35-1.53 3.35-3.41V3.41c0-1.88-1.502-3.41-3.35-3.41zM12.5 1.749c3.252 0 5.899 2.695 5.899 6.006.003.386-.307.7-.693.705H7.294c-.386-.004-.696-.32-.693-.705 0-3.313 2.647-6.005 5.899-6.005v-.001zM8.756 24.614c-1.241.268-2.462-.828-2.855-2.42-.797-3.241-2.708-4.688-3.146-6.78-.52-2.49.496-4.82 2.269-5.204 1.774-.384 3.631 1.324 4.151 3.813.351 1.68.061 3.614 1.223 7.197.505 1.559-.4 3.125-1.642 3.394zm13.488-9.2c-.438 2.092-2.348 3.539-3.145 6.78-.392 1.592-1.613 2.689-2.855 2.42-1.243-.269-2.148-1.835-1.642-3.394 1.162-3.582.872-5.516 1.222-7.196.52-2.49 2.379-4.198 4.152-3.813 1.773.383 2.788 2.713 2.268 5.203z" transform="translate(15 15) translate(2.5 1.25)"/>
                <path d="M11.807 5.105c-.003-.386.307-.702.693-.706.386.004.696.32.693.706V7.05h3.767c-.332-2.2-2.206-3.891-4.46-3.891S8.374 4.849 8.039 7.05h3.768V5.105z" transform="translate(15 15) translate(2.5 1.25)"/>
            </g>
        </g>
    </g>
</svg>
