<svg xmlns="http://www.w3.org/2000/svg" width="16" height="16" viewBox="0 0 16 16">
    <g fill="#646F86">
        <path d="M14.125 1.25h-.75V0h-1.25v1.25h-8.25V0h-1.25v1.25h-.75C.841 1.25 0 2.091 0 3.125v11C0 15.159.841 16 1.875 16h12.25C15.159 16 16 15.159 16 14.125v-11c0-1.034-.841-1.875-1.875-1.875zm.625 12.875c0 .345-.28.625-.625.625H1.875c-.345 0-.625-.28-.625-.625v-8.25h13.5v8.25zm0-9.5H1.25v-1.5c0-.345.28-.625.625-.625h.75v1.25h1.25V2.5h8.25v1.25h1.25V2.5h.75c.345 0 .625.28.625.625v1.5z"/>
        <path d="M2.375 7.188H3.625V8.437999999999999H2.375zM4.875 7.188H6.125V8.437999999999999H4.875zM7.375 7.188H8.625V8.437999999999999H7.375zM9.875 7.188H11.125V8.437999999999999H9.875zM12.375 7.188H13.625V8.437999999999999H12.375zM2.375 9.688H3.625V10.938H2.375zM4.875 9.688H6.125V10.938H4.875zM7.375 9.688H8.625V10.938H7.375zM9.875 9.688H11.125V10.938H9.875zM2.375 12.188H3.625V13.438H2.375zM4.875 12.188H6.125V13.438H4.875zM7.375 12.188H8.625V13.438H7.375zM9.875 12.188H11.125V13.438H9.875zM12.375 9.688H13.625V10.938H12.375z"/>
    </g>
</svg>
