<svg xmlns="http://www.w3.org/2000/svg" width="60" height="60" viewBox="0 0 60 60">
    <g fill="none" fill-rule="evenodd" transform="translate(.5)">
        <circle cx="29.538" cy="29.538" r="29.538" fill="#40C1AC"/>
        <g>
            <path d="M0 0L30 0 30 30 0 30z" transform="translate(15 15)"/>
            <path fill="#FFF" fill-rule="nonzero" d="M15.001 6.991c1.949 0 3.534-1.568 3.534-3.496S16.95 0 15 0c-1.95 0-3.531 1.567-3.531 3.495 0 1.928 1.584 3.496 3.532 3.496zm7.196 10.431l-2.862-8.774c-.153-.47-.663-.838-1.163-.838H11.83c-.499 0-1.009.369-1.163.838l-2.862 8.774c-.087.243-.051.512.097.723.146.199.389.313.666.313h.734c.499 0 1.009-.368 1.163-.838l.815-2.5v12.947c0 .89.731 1.613 1.63 1.613h.115c.9 0 1.63-.724 1.63-1.613v-8.442h.693v8.441c0 .889.732 1.613 1.632 1.613h.115c.898 0 1.63-.724 1.63-1.613V15.12l.816 2.501c.153.47.663.837 1.163.837h.733c.26.009.506-.108.665-.312.148-.21.184-.48.097-.723z" transform="translate(15 15)"/>
        </g>
    </g>
</svg>
