<svg xmlns="http://www.w3.org/2000/svg" width="34" height="34" viewBox="0 0 34 34">
    <g fill="none" fill-rule="evenodd">
        <rect width="33.6" height="33.6" fill="#646F86" rx="16.8"/>
        <path fill="#FFF" fill-rule="nonzero" d="M22.4 13.3c-.42.21-.84.28-1.33.35.49-.28.84-.7.98-1.26-.42.28-.91.42-1.47.56-.42-.42-1.05-.7-1.68-.7-1.19 0-2.24 1.05-2.24 2.31 0 .21 0 .35.07.49-1.89-.07-3.64-.98-4.76-2.38-.21.35-.28.7-.28 1.19 0 .77.42 1.47 1.05 1.89-.35 0-.7-.14-1.05-.28 0 1.12.77 2.03 1.82 2.24-.21.07-.42.07-.63.07-.14 0-.28 0-.42-.07.28.91 1.12 1.61 2.17 1.61-.77.63-1.75.98-2.87.98h-.56c1.05.63 2.24 1.05 3.5 1.05 4.2 0 6.51-3.5 6.51-6.51v-.28c.49-.35.91-.77 1.19-1.26z"/>
    </g>
</svg>
