<svg xmlns="http://www.w3.org/2000/svg" width="20" height="20" viewBox="0 0 20 20">
    <g fill="#646F86">
        <path d="M19.743 11.763V1.44c0-.792-.641-1.433-1.433-1.433H1.458C.666.008.025.65.025 1.441v12.688c.024.674.58 1.213 1.262 1.213H18.477c.681 0 1.233-.54 1.262-1.213l.004-2.366zm-8.714 2.204c0 .174-.142.316-.317.316h-1.66c-.175 0-.317-.142-.317-.316v-.22c0-.174.142-.316.317-.316h1.66c.175 0 .317.142.317.316v.22zm7.281-1.701H1.458c-.138 0-.252-.114-.252-.252V1.441c0-.138.114-.252.252-.252h16.848c.138 0 .252.114.252.252v10.573c0 .138-.11.252-.248.252z" transform="translate(0 2)"/>
        <path d="M12.673 3.562H7.377c-.417 0-.752.34-.752.76L6.62 9.65c0 .42.339.761.756.761h5.296c.418 0 .756-.34.756-.761V4.323c0-.42-.338-.761-.756-.761zm-.379 4.185h-1.513V9.27H9.27V7.747H7.756V6.225h1.513V4.703h1.512v1.522h1.513v1.522z" transform="translate(0 2)"/>
    </g>
</svg>
