<svg xmlns="http://www.w3.org/2000/svg" width="34" height="34" viewBox="0 0 34 34">
    <g fill="none" fill-rule="evenodd">
        <rect width="33.6" height="33.6" fill="#00ACC5" rx="16.8"/>
        <g fill="#FFF" fill-rule="nonzero" transform="translate(11.2 11.2)">
            <circle cx="8.502" cy="2.724" r="1"/>
            <path d="M5.6 8.4c-1.544 0-2.8-1.256-2.8-2.8 0-1.544 1.256-2.8 2.8-2.8 1.544 0 2.8 1.256 2.8 2.8 0 1.544-1.256 2.8-2.8 2.8zm0-4.2c-.772 0-1.4.628-1.4 1.4 0 .772.628 1.4 1.4 1.4C6.372 7 7 6.372 7 5.6c0-.772-.628-1.4-1.4-1.4z"/>
            <path d="M8.4 11.2H2.8C1.36 11.2 0 9.84 0 8.4V2.8C0 1.36 1.36 0 2.8 0h5.6c1.44 0 2.8 1.36 2.8 2.8v5.6c0 1.44-1.36 2.8-2.8 2.8zM2.8 1.4c-.654 0-1.4.746-1.4 1.4v5.6c0 .667.733 1.4 1.4 1.4h5.6c.655 0 1.4-.745 1.4-1.4V2.8c0-.654-.745-1.4-1.4-1.4H2.8z"/>
        </g>
    </g>
</svg>
