<svg xmlns="http://www.w3.org/2000/svg" width="17" height="16" viewBox="0 0 17 16">
    <path fill="#646F86" d="M16.087 12.627c.034.26-.045.486-.236.678l-2.244 2.237c-.101.113-.233.21-.396.288-.164.08-.324.13-.481.153l-.102.008c-.056.006-.129.009-.219.009-.214 0-.56-.037-1.038-.11-.478-.074-1.063-.254-1.754-.543-.692-.288-1.477-.72-2.354-1.296-.878-.576-1.811-1.367-2.801-2.373-.788-.78-1.44-1.525-1.958-2.237-.517-.712-.933-1.37-1.248-1.975C.94 6.862.704 6.314.547 5.822.39 5.33.283 4.907.227 4.551c-.057-.356-.08-.636-.068-.84.011-.203.017-.316.017-.338.022-.158.073-.32.152-.483.078-.164.174-.297.286-.398L2.86.237C3.016.08 3.196 0 3.399 0c.146 0 .275.042.388.127.112.085.208.19.287.314l1.805 3.44c.101.181.13.379.084.594-.045.214-.14.395-.286.542l-.827.83c-.023.023-.042.06-.06.11-.016.051-.025.094-.025.128.045.237.147.508.304.813.135.271.343.602.624.992.282.39.681.839 1.198 1.347.507.52.957.924 1.35 1.212.394.288.723.5.987.636.265.135.467.217.608.245l.21.043c.023 0 .06-.009.11-.026.051-.017.088-.036.11-.059l.962-.983c.202-.18.439-.271.709-.271.19 0 .343.034.455.102h.017l3.257 1.932c.236.147.376.333.421.56z"/>
</svg>
