<svg xmlns="http://www.w3.org/2000/svg" width="16" height="16" viewBox="0 0 16 16">
    <path fill="#FFF" d="M15.968 12.626c.034.26-.046.486-.237.678l-2.25 2.236c-.1.113-.233.21-.397.288-.163.08-.324.13-.482.153l-.101.008c-.057.006-.13.009-.22.009-.214 0-.561-.037-1.04-.11-.48-.074-1.066-.255-1.759-.543-.693-.288-1.48-.72-2.36-1.296-.879-.575-1.814-1.366-2.807-2.371-.789-.78-1.443-1.525-1.961-2.237-.519-.711-.936-1.369-1.252-1.973C.786 6.864.55 6.316.392 5.824.234 5.334.127 4.91.07 4.554c-.056-.356-.078-.635-.067-.839.011-.203.017-.316.017-.339.022-.158.073-.319.152-.482.079-.164.175-.297.287-.398L2.71.242c.158-.158.338-.237.54-.237.147 0 .277.043.39.127.113.085.208.19.287.314l1.81 3.439c.101.18.13.378.085.593-.046.214-.141.395-.288.542l-.829.83c-.022.022-.042.06-.059.11-.017.05-.025.093-.025.127.045.237.146.508.304.813.135.271.344.602.626.991.282.39.682.839 1.2 1.347.508.52.959.923 1.354 1.211.394.288.724.5.989.636.265.135.468.217.609.245l.211.043c.023 0 .06-.009.11-.026s.087-.036.11-.06l.964-.982c.203-.18.44-.27.71-.27.192 0 .344.033.457.101h.017l3.264 1.931c.237.147.378.333.423.56z"/>
</svg>
