<svg xmlns="http://www.w3.org/2000/svg" width="60" height="60" viewBox="0 0 60 60">
    <g fill="none" fill-rule="evenodd" transform="translate(.5)">
        <circle cx="29.538" cy="29.538" r="29.538" fill="#40C1AC"/>
        <g fill-rule="nonzero">
            <path fill="#00ADC6" d="M32.985.325H2.116C.95.325 0 1.263 0 2.416v24.92c0 1.153.949 2.091 2.115 2.091h30.87c1.167 0 2.116-.938 2.116-2.091V2.416c0-1.154-.949-2.093-2.115-2.093l-.001.002z" transform="translate(12 15.692)"/>
            <path fill="#FFF" d="M32.985.325H2.116C.95.325 0 1.263 0 2.416v24.92c0 1.153.949 2.091 2.115 2.091h30.87c1.167 0 2.116-.938 2.116-2.091V2.416c0-1.154-.949-2.093-2.115-2.093l-.001.002z" transform="translate(12 15.692)"/>
            <g fill="#40C1AC">
                <path d="M29.944 21.167H.097v-8.835s-.012-.284.306-.284h2.822c.292 0 .526.26.526.26l1.081 1.21c.159.177.397.254.623.203.228-.054.408-.228.468-.453 0 0 .904-3.264 1.22-4.349.075-.262.163-.089.163-.089l.838 1.987c.112.265.383.444.674.444h2.703c.2 0 .24.204.24.204l1.2 4.672c.081.321.35.47.58.474h.01c.227 0 .494-.139.587-.452 0 0 1.362-4.545 1.808-6.063.082-.274.195.012.195.012l.894 1.802c.127.25.384.408.666.411h2.913c.316-.001.593-.205.685-.503 0 0 .854-2.811 1.145-3.746.054-.178.094.048.094.048l1.136 4.53c.057.254.27.444.533.475.262.026.513-.114.625-.35l.97-1.941s.032-.094.17-.094h3.818c.158 0 .154.133.154.133v10.294z" transform="translate(12 15.692) translate(2.532 4.22)"/>
                <path d="M29.944 9.45c0 .144-.154.136-.154.136h-4.207c-.28.003-.536.16-.664.407 0 0-.302.594-.397.795-.084.173-.113-.01-.113-.01l-1.274-5.077c-.06-.27-.297-.467-.577-.477-.281-.005-.53.18-.602.448l-1.64 5.372s-.02.123-.203.123h-2c-.143 0-.205-.12-.205-.12L16.45 8.101c-.11-.233-.354-.374-.613-.355-.258.024-.474.204-.543.452l-1.627 5.453s-.065.305-.141-.007c-.185-.755-.774-3.01-.774-3.01-.083-.31-.364-.525-.687-.529H9.391c-.274 0-.36-.189-.36-.189L7.687 6.733c-.097-.246-.342-.403-.61-.39-.266.02-.49.206-.555.463 0 0-1.034 3.557-1.332 4.754-.127.509-.395.174-.395.174l-.512-.573c-.154-.168-.371-.264-.6-.267H.425c-.34 0-.327-.268-.327-.268V.668h29.845v8.781h.001z" transform="translate(12 15.692) translate(2.532 4.22)"/>
            </g>
        </g>
    </g>
</svg>
