<svg xmlns="http://www.w3.org/2000/svg" width="20" height="19" viewBox="0 0 20 19">
    <g fill="#7A7A7A">
        <path d="M9.999 5.016L9.997 9.39c0 .166.066.324.183.442l3.128 3.127.884-.884-2.945-2.944.002-4.114h-1.25z"/>
        <path d="M11.25.016c-4.4 0-8.04 3.267-8.65 7.5H0l3.125 3.125L6.25 7.516H3.863c.598-3.541 3.678-6.25 7.387-6.25 4.136 0 7.5 3.364 7.5 7.5s-3.364 7.5-7.5 7.5c-2.325 0-4.48-1.052-5.914-2.887l-.985.77c1.672 2.14 4.187 3.367 6.899 3.367 4.825 0 8.75-3.926 8.75-8.75S16.075.016 11.25.016z"/>
    </g>
</svg>
